#N canvas 282 48 898 577 10;
#X obj 366 193 playlist all 300 200 {Courier 10 bold} #457782 grey
black red;
#X obj 342 87 loadbang;
#X msg 218 365 seek \$1;
#X floatatom 241 312 5 0 0 0 - - -;
#X obj 97 324 float;
#X obj 104 372 + 1;
#X obj 41 229 tgl 15 0 empty empty empty 17 7 0 10 -262144 -1 -1 1
1;
#X msg 67 330 0;
#X obj 67 288 metro 250;
#X obj 431 109 bng 15 250 50 0 empty empty empty 17 7 0 10 -262144
-1 -1;
#X msg 360 132 location /home/rafael/Desktop/timeline/1;
#X obj 781 367 cnv 15 100 60 empty empty empty 20 12 0 14 -195568 -66577
0;
#N canvas 305 87 450 300 gemwin 0;
#X obj 132 136 gemwin;
#X obj 67 89 outlet;
#X obj 67 10 inlet;
#X obj 67 41 route create;
#X msg 67 70 set destroy;
#X msg 142 68 set create;
#X msg 132 112 create \, 1;
#X msg 198 112 destroy;
#X obj 270 -7 tgl 15 1 empty empty empty 0 -6 0 10 -262144 -1 -1 0
1;
#X msg 271 11 lighting \$1;
#X connect 2 0 3 0;
#X connect 3 0 4 0;
#X connect 3 0 6 0;
#X connect 3 1 5 0;
#X connect 3 1 7 0;
#X connect 4 0 1 0;
#X connect 5 0 1 0;
#X connect 6 0 0 0;
#X connect 7 0 0 0;
#X connect 8 0 9 0;
#X connect 9 0 0 0;
#X restore 786 406 pd gemwin;
#X msg 786 387 destroy;
#X text 782 366 Create window:;
#X obj 718 197 gemhead;
#X obj 724 542 pix_draw;
#X obj 718 309 pix_image;
#X msg 788 309 thread \$1;
#X obj 859 313 tgl 15 0 empty empty empty 17 7 0 10 -262144 -1 -1 1
1;
#X msg 488 494 open \$1;
#X obj 747 439 pix_texture;
#X obj 747 462 rectangle;
#X connect 0 0 20 0;
#X connect 1 0 10 0;
#X connect 2 0 0 0;
#X connect 3 0 2 0;
#X connect 4 0 5 0;
#X connect 5 0 4 1;
#X connect 5 0 3 0;
#X connect 5 0 9 0;
#X connect 6 0 8 0;
#X connect 7 0 4 0;
#X connect 8 0 4 0;
#X connect 9 0 10 0;
#X connect 10 0 0 0;
#X connect 12 0 13 0;
#X connect 13 0 12 0;
#X connect 15 0 17 0;
#X connect 17 0 21 0;
#X connect 18 0 17 0;
#X connect 19 0 18 0;
#X connect 20 0 17 0;
#X connect 21 0 22 0;
#X connect 22 0 16 0;
