#N canvas 404 173 693 526 10;
#X obj 161 63 adc~;
#X obj 165 132 bonk~;
#X obj 281 194 bng 15 250 50 0 empty empty empty 17 7 0 10 -262144
-1 -1;
#X obj 209 318 shell;
#X obj 212 376 print STDOUT;
#X msg 134 197 gphoto2 --shell;
#X msg 211 246 capture-image-and-download;
#X msg 242 281 gphoto2 --reset--capture-image-and-download;
#X obj 376 47 dac~;
#X connect 0 0 1 0;
#X connect 1 0 2 0;
#X connect 2 0 7 0;
#X connect 3 0 4 0;
#X connect 7 0 3 0;
