#N canvas 502 116 756 577 10;
#X obj 52 120 bonk~;
#X obj 44 48 adc~;
#X obj 50 176 bng 15 250 50 0 empty empty empty 17 7 0 10 -262144 -1
-1;
#X obj 157 304 pix_write;
#X msg 109 250 bang;
#X obj 436 -14 cnv 15 100 60 empty empty empty 20 12 0 14 -195568 -66577
0;
#N canvas 0 22 450 300 gemwin 1;
#X obj 132 136 gemwin;
#X obj 67 89 outlet;
#X obj 67 10 inlet;
#X msg 67 70 set destroy;
#X msg 132 112 create \, 1;
#X msg 198 112 destroy;
#X msg 156 71 set create;
#X obj 67 41 route create;
#X obj 282 -13 tgl 15 1 empty empty empty 0 -6 0 10 -262144 -1 -1 0
1;
#X msg 283 5 lighting \$1;
#X msg 178 25 dimen 480 640;
#X connect 2 0 7 0;
#X connect 3 0 1 0;
#X connect 4 0 0 0;
#X connect 5 0 0 0;
#X connect 6 0 1 0;
#X connect 7 0 3 0;
#X connect 7 0 4 0;
#X connect 7 1 6 0;
#X connect 7 1 5 0;
#X connect 8 0 9 0;
#X connect 9 0 0 0;
#X connect 10 0 0 0;
#X restore 441 24 pd gemwin;
#X msg 441 4 destroy;
#X text 437 -16 Create window:;
#X obj 145 63 gemhead;
#X obj 140 141 pix_texture;
#X obj 140 115 pix_video;
#X obj 366 193 playlist all 300 200 {Courier 10 bold} #457782 grey
black red;
#X msg 360 132 location /home/rafael/Desktop/timeline;
#X obj 342 87 loadbang;
#X obj 368 444 cnv 15 160 60 empty empty empty 20 12 0 14 -24198 -66577
0;
#X obj 369 482 pix_image;
#X msg 439 482 thread \$1;
#X obj 510 486 tgl 15 0 empty empty empty 17 7 0 10 -262144 -1 -1 0
1;
#X msg 385 451 open \$1;
#X obj 357 513 pix_texture;
#X msg 218 365 seek \$1;
#X floatatom 241 312 5 0 0 0 - - -;
#X obj 97 324 float;
#X obj 104 372 + 1;
#X obj 41 229 tgl 15 0 empty empty empty 17 7 0 10 -262144 -1 -1 1
1;
#X msg 67 330 0;
#X obj 67 288 metro 250;
#X obj 636 6 key;
#X floatatom 633 31 5 0 0 0 - - -;
#X obj 632 56 sel 100;
#X obj 632 117 shell;
#X msg 632 88 rm /home/rafael/Desktop/timeline/*;
#X obj 458 102 del 100;
#X obj 431 109 bng 15 250 50 0 empty empty empty 17 7 0 10 -262144
-1 -1;
#X msg 278 158 file /home/rafael/Desktop/timeline/;
#X msg 194 227 auto 0;
#X obj 140 164 rectangle 7.1 5.3;
#X obj 363 538 rectangle 6.8 4.1;
#X connect 0 0 2 0;
#X connect 1 0 0 0;
#X connect 2 0 4 0;
#X connect 2 0 23 0;
#X connect 2 0 13 0;
#X connect 4 0 3 0;
#X connect 6 0 7 0;
#X connect 7 0 6 0;
#X connect 9 0 11 0;
#X connect 10 0 37 0;
#X connect 11 0 10 0;
#X connect 12 0 19 0;
#X connect 13 0 12 0;
#X connect 14 0 13 0;
#X connect 14 0 35 0;
#X connect 16 0 20 0;
#X connect 17 0 16 0;
#X connect 18 0 17 0;
#X connect 19 0 16 0;
#X connect 20 0 38 0;
#X connect 21 0 12 0;
#X connect 22 0 21 0;
#X connect 23 0 24 0;
#X connect 24 0 23 1;
#X connect 24 0 22 0;
#X connect 25 0 27 0;
#X connect 26 0 23 0;
#X connect 27 0 23 0;
#X connect 28 0 29 0;
#X connect 29 0 30 0;
#X connect 30 0 32 0;
#X connect 30 0 33 0;
#X connect 32 0 31 0;
#X connect 33 0 34 0;
#X connect 34 0 13 0;
#X connect 35 0 3 0;
#X connect 36 0 3 0;
#X connect 37 0 3 0;
#X connect 37 0 16 0;
